<svg xmlns="http://www.w3.org/2000/svg" width="130" height="130" viewBox="0 0 130 130">
<g><rect id="body" x="27" y="16.02" width="76" height="97.95" fill="none" stroke="none" /><g id="icon" transform="translate(33 22.03) scale(2.6667)"><path d="M21 8a2 2 0 0 0-1-1.73l-7-4a2 2 0 0 0-2 0l-7 4A2 2 0 0 0 3 8v8a2 2 0 0 0 1 1.73l7 4a2 2 0 0 0 2 0l7-4A2 2 0 0 0 21 16Z" fill="none" stroke="var(--sw-accent)" stroke-width="0.675" stroke-linecap="round" stroke-linejoin="round" /><path d="m3.3 7 8.7 5 8.7-5" fill="none" stroke="var(--sw-accent)" stroke-width="0.675" stroke-linecap="round" stroke-linejoin="round" /><path d="M12 22V12" fill="none" stroke="var(--sw-accent)" stroke-width="0.675" stroke-linecap="round" stroke-linejoin="round" /></g><text id="title" x="65" y="104.21" text-anchor="middle" font-family="Inter, Segoe UI, sans-serif" font-size="13" font-weight="500" fill="var(--sw-ink)">Service</text><circle id="edge" cx="65" cy="54.03" r="45.25" fill="none" stroke="transparent" /></g>
</svg>
