<svg xmlns="http://www.w3.org/2000/svg" viewBox="0 0 150 110" width="150" height="110"><g><rect id="body" x="37" y="6.02" width="76" height="97.95" fill="none" stroke="none" /><g id="icon" transform="translate(43 12.02) scale(2.6667)"><path d="M20 13c0 5-3.5 7.5-7.66 8.95a1 1 0 0 1-.67-.01C7.5 20.5 4 18 4 13V6a1 1 0 0 1 1-1c2 0 4.5-1.2 6.24-2.72a1.17 1.17 0 0 1 1.52 0C14.51 3.81 17 5 19 5a1 1 0 0 1 1 1z" fill="none" stroke="var(--sw-accent)" stroke-width="0.675" stroke-linecap="round" stroke-linejoin="round" /><path d="m9 12 2 2 4-4" fill="none" stroke="var(--sw-accent)" stroke-width="0.675" stroke-linecap="round" stroke-linejoin="round" /></g><text id="title" x="75" y="94.21" text-anchor="middle" font-family="Inter, Segoe UI, sans-serif" font-size="13" font-weight="500" fill="var(--sw-ink)">Auth</text><circle id="p-n" cx="75" cy="6.02" r="3.5" fill="var(--sw-port)" /><circle id="p-e" cx="113" cy="55" r="3.5" fill="var(--sw-port)" /><circle id="p-s" cx="75" cy="103.98" r="3.5" fill="var(--sw-port)" /><circle id="p-w" cx="37" cy="55" r="3.5" fill="var(--sw-port)" /></g></svg>
