<svg xmlns="http://www.w3.org/2000/svg" width="130" height="130" viewBox="0 0 130 130">
<g><rect id="body" x="0" y="0" width="95.05" height="130" fill="none" stroke="none" /><g id="icon" transform="translate(6 6) scale(3.4604)"><path d="M15.914 4a1.5 1.5 0 00-2.474-1.561l-9 9A1.5 1.5 0 005.5 14h4.002a.5.5 0 01.471.666L8.086 20a1.5 1.5 0 002.475 1.56l9-9A1.5 1.5 0 0018.5 10h-3.997a.5.5 0 01-.472-.667z" fill="none" stroke="var(--sw-accent)" stroke-width="0.52" stroke-linecap="round" stroke-linejoin="round" /></g><text id="title" x="47.53" y="107.23" text-anchor="middle" font-family="Inter, Segoe UI, sans-serif" font-size="13" font-weight="500" fill="var(--sw-ink)">Cache</text><text id="subtitle" x="47.53" y="120.5" text-anchor="middle" font-family="Inter, Segoe UI, sans-serif" font-size="10" fill="var(--sw-ink-muted)">Redis</text><circle id="edge" cx="47.53" cy="47.53" r="41.53" fill="none" stroke="transparent" /><circle id="grip" cx="95.05" cy="130" r="0" fill="none" stroke="none" /></g>
</svg>
