<svg xmlns="http://www.w3.org/2000/svg" viewBox="0 0 150 110" width="150" height="110"><g><rect id="body" x="25.32" y="6.02" width="99.36" height="97.95" fill="none" stroke="none" /><g id="icon" transform="translate(43 12.02) scale(2.6667)"><path d="M18 16.98h-5.99c-1.1 0-1.95.94-2.48 1.9A4 4 0 0 1 2 17c.01-.7.2-1.4.57-2" fill="none" stroke="var(--sw-accent)" stroke-width="0.675" stroke-linecap="round" stroke-linejoin="round" /><path d="m6 17 3.13-5.78c.53-.97.1-2.18-.5-3.1a4 4 0 1 1 6.89-4.06" fill="none" stroke="var(--sw-accent)" stroke-width="0.675" stroke-linecap="round" stroke-linejoin="round" /><path d="m12 6 3.13 5.73C15.66 12.7 16.9 13 18 13a4 4 0 0 1 0 8" fill="none" stroke="var(--sw-accent)" stroke-width="0.675" stroke-linecap="round" stroke-linejoin="round" /></g><text id="title" x="75" y="94.21" text-anchor="middle" font-family="Inter, Segoe UI, sans-serif" font-size="13" font-weight="500" fill="var(--sw-ink)">External API</text><circle id="p-n" cx="75" cy="6.02" r="3.5" fill="var(--sw-port)" /><circle id="p-e" cx="124.68" cy="55" r="3.5" fill="var(--sw-port)" /><circle id="p-s" cx="75" cy="103.98" r="3.5" fill="var(--sw-port)" /><circle id="p-w" cx="25.32" cy="55" r="3.5" fill="var(--sw-port)" /></g></svg>
