<svg xmlns="http://www.w3.org/2000/svg" viewBox="0 0 150 110" width="150" height="110"><g><rect id="body" x="37" y="6.02" width="76" height="97.95" fill="none" stroke="none" /><g id="icon" transform="translate(43 12.02) scale(2.6667)"><path d="M5 3H19a2 2 0 0 1 2 2V19a2 2 0 0 1 -2 2H5a2 2 0 0 1 -2 -2V5a2 2 0 0 1 2 -2Z" fill="none" stroke="var(--sw-accent)" stroke-width="0.675" stroke-linecap="round" stroke-linejoin="round" /><path d="M12 9v6" fill="none" stroke="var(--sw-accent)" stroke-width="0.675" stroke-linecap="round" stroke-linejoin="round" /><path d="M16 15v6" fill="none" stroke="var(--sw-accent)" stroke-width="0.675" stroke-linecap="round" stroke-linejoin="round" /><path d="M16 3v6" fill="none" stroke="var(--sw-accent)" stroke-width="0.675" stroke-linecap="round" stroke-linejoin="round" /><path d="M3 15h18" fill="none" stroke="var(--sw-accent)" stroke-width="0.675" stroke-linecap="round" stroke-linejoin="round" /><path d="M3 9h18" fill="none" stroke="var(--sw-accent)" stroke-width="0.675" stroke-linecap="round" stroke-linejoin="round" /><path d="M8 15v6" fill="none" stroke="var(--sw-accent)" stroke-width="0.675" stroke-linecap="round" stroke-linejoin="round" /><path d="M8 3v6" fill="none" stroke="var(--sw-accent)" stroke-width="0.675" stroke-linecap="round" stroke-linejoin="round" /></g><text id="title" x="75" y="94.21" text-anchor="middle" font-family="Inter, Segoe UI, sans-serif" font-size="13" font-weight="500" fill="var(--sw-ink)">Firewall</text><circle id="p-n" cx="75" cy="6.02" r="3.5" fill="var(--sw-port)" /><circle id="p-e" cx="113" cy="55" r="3.5" fill="var(--sw-port)" /><circle id="p-s" cx="75" cy="103.98" r="3.5" fill="var(--sw-port)" /><circle id="p-w" cx="37" cy="55" r="3.5" fill="var(--sw-port)" /></g></svg>
